<svg width="248" height="248" viewBox="0 0 248 248" fill="none" xmlns="http://www.w3.org/2000/svg">
<path d="M124 232.5C64.0771 232.5 15.5 183.923 15.5 124C15.5 64.0771 64.0771 15.5 124 15.5C183.923 15.5 232.5 64.0771 232.5 124C232.5 183.923 183.923 232.5 124 232.5ZM124 248C192.483 248 248 192.483 248 124C248 55.5167 192.483 0 124 0C55.5167 0 0 55.5167 0 124C0 192.483 55.5167 248 124 248Z" fill="#F7D664"/>
<path d="M66.4143 148.292C70.1193 146.148 74.8602 147.414 77.0034 151.119C86.3951 167.355 103.93 178.25 124 178.25C144.071 178.25 161.606 167.355 170.997 151.119C173.141 147.414 177.882 146.148 181.587 148.292C185.292 150.435 186.558 155.176 184.414 158.881C172.366 179.709 149.828 193.75 124 193.75C98.1733 193.75 75.6349 179.709 63.5865 158.881C61.4433 155.176 62.7093 150.435 66.4143 148.292Z" fill="#F7D664"/>
<path d="M108.5 100.75C108.5 113.591 101.56 124 93 124C84.4396 124 77.5 113.591 77.5 100.75C77.5 87.9094 84.4396 77.5 93 77.5C101.56 77.5 108.5 87.9094 108.5 100.75Z" fill="#F7D664"/>
<path d="M170.5 100.75C170.5 113.591 163.56 124 155 124C146.44 124 139.5 113.591 139.5 100.75C139.5 87.9094 146.44 77.5 155 77.5C163.56 77.5 170.5 87.9094 170.5 100.75Z" fill="#F7D664"/>
</svg>
