<svg width="48" height="48" viewBox="0 0 48 48" fill="none" xmlns="http://www.w3.org/2000/svg">
<path d="M8.49231 14.3077C8.49231 13.2371 7.62442 12.3692 6.55385 12.3692C5.48327 12.3692 4.61539 13.2371 4.61539 14.3077V41.4462C4.61539 42.5168 5.48327 43.3846 6.55385 43.3846H33.6923C34.7629 43.3846 35.6308 42.5168 35.6308 41.4462C35.6308 40.3755 34.7629 39.5077 33.6923 39.5077H10.4308C9.3602 39.5077 8.49231 38.6398 8.49231 37.5692V14.3077ZM43.3846 6.55385C43.3846 5.48327 42.5168 4.61539 41.4462 4.61539H14.3077C13.2371 4.61539 12.3692 5.48327 12.3692 6.55385V33.6923C12.3692 34.7629 13.2371 35.6308 14.3077 35.6308H41.4462C42.5168 35.6308 43.3846 34.7629 43.3846 33.6923V6.55385ZM39.5077 20.5763C39.5077 22.0831 37.8639 23.0138 36.5719 22.2385L35.6589 21.6907C35.045 21.3224 34.2781 21.3224 33.6642 21.6907L32.7512 22.2385C31.4592 23.0138 29.8154 22.0831 29.8154 20.5763V10.4308C29.8154 9.3602 30.6832 8.49231 31.7538 8.49231H37.5692C38.6398 8.49231 39.5077 9.3602 39.5077 10.4308V20.5763Z" fill="white"/>
<path d="M29.5385 24V8.76923H39.2308V24L34.3846 21.1442L29.5385 24Z" stroke="white"/>
</svg>
