<svg width="52" height="52" viewBox="0 0 52 52" fill="none" xmlns="http://www.w3.org/2000/svg">
<g clip-path="url(#clip0_337_18370)">
<path d="M8.46668 40.3233L3.58935 49.347H11.4791L18.9386 45.6229H32.2078L45.477 38.1748L50.3543 26.5729V18.4803L43.397 7.30814L32.2078 2.65308L11.4791 4.72995C8.44277 7.52299 2.05443 14.5987 0.79206 20.5572C-0.470303 26.5157 5.38249 36.2172 8.46668 40.3233Z" fill="white" stroke="#1D1A2F"/>
<path d="M25.75 0C10.9197 0 -1.5 10.5664 -1.5 23.92C-1.5 30.2224 1.34867 35.8759 5.83653 40.1044C5.28976 41.519 4.5153 42.8361 3.54335 44.0044C2.25394 45.5567 0.82935 46.9933 -0.713942 48.2976C-1.05244 48.5671 -1.2983 48.9341 -1.4176 49.3481C-1.5369 49.7623 -1.52376 50.2029 -1.37999 50.6091C-1.23622 51.0154 -0.968907 51.3674 -0.614943 51.6166C-0.260979 51.8657 0.162192 51.9997 0.59615 52C5.23913 52 8.5783 51.948 11.601 51.1556C14.305 50.4441 16.6297 48.9549 19.0025 46.8644C21.1615 47.3783 23.3897 47.84 25.75 47.84C40.5803 47.84 53 37.2736 53 23.92C53 10.5664 40.5803 0 25.75 0ZM25.75 4.16C38.589 4.16 48.8077 13.1456 48.8077 23.92C48.8077 34.6944 38.589 43.68 25.75 43.68C23.4673 43.68 21.0965 43.289 18.9375 42.7044C18.5922 42.6183 18.2306 42.6209 17.8866 42.7119C17.5425 42.8029 17.2276 42.9793 16.9713 43.2244C14.6132 45.4689 12.8754 46.515 10.5529 47.1244C9.48385 47.4053 7.42123 47.3387 5.9665 47.451C6.25997 47.1224 6.53455 46.9477 6.81963 46.6044C8.46722 44.6077 9.97015 42.4964 10.4229 40.1044C10.4853 39.7454 10.4515 39.3764 10.325 39.0343C10.1984 38.6923 9.98354 38.3893 9.70185 38.1556C5.3104 34.5571 2.6923 29.5131 2.6923 23.92C2.6923 13.1456 12.911 4.16 25.75 4.16ZM21.7547 12.2845C21.3858 12.3666 21.046 12.5463 20.7717 12.8045L17.6273 15.731L20.4447 18.7844L22.9328 16.4444H27.9762L29.9423 18.6576V21.7131L24.5698 25.2866C24.2827 25.4806 24.0487 25.7424 23.8888 26.0486C23.7289 26.3546 23.6481 26.6953 23.6538 27.04V31.2H27.8462V28.209L33.2187 24.6356C33.5061 24.4413 33.7404 24.1791 33.9003 23.8727C34.0602 23.5661 34.1407 23.225 34.1347 22.88V17.8756C34.1318 17.3729 33.9457 16.8881 33.6105 16.511L30.4663 13C30.2706 12.7766 30.0292 12.5972 29.7581 12.4738C29.4871 12.3504 29.1926 12.2859 28.8942 12.2845H22.2117C22.0598 12.268 21.9065 12.268 21.7547 12.2845ZM23.6538 33.28V37.44H27.8462V33.28H23.6538Z" fill="#F7D664"/>
</g>
<defs>
<clipPath id="clip0_337_18370">
<rect width="52" height="52" fill="white"/>
</clipPath>
</defs>
</svg>
