<svg width="52" height="52" viewBox="0 0 52 52" fill="none" xmlns="http://www.w3.org/2000/svg">
<g clip-path="url(#clip0_337_18341)">
<path d="M25.414 2.57657C8.16402 14.8504 13.539 34.0031 18.3828 42.045L33.2656 43.5676C46.2031 19.1135 33.4219 6.05104 25.414 2.57657Z" fill="white"/>
<path d="M13.3147 23.75L13.3124 23.742L5.96473 32.5539C5.78122 32.7741 5.65067 33.0334 5.5831 33.3116C5.51553 33.5901 5.51274 33.8804 5.57496 34.16L8.47254 47.1912C8.54159 47.5018 8.68868 47.7899 8.8999 48.0279C9.11112 48.2661 9.37955 48.4465 9.67988 48.5521C9.98018 48.658 10.3025 48.6854 10.6164 48.6322C10.9303 48.579 11.2255 48.4469 11.4742 48.2481L18.5 42.6307C14.3668 35.4748 13.0492 29.1568 13.3147 23.75Z" fill="white"/>
<path d="M38.5442 23.5806L38.5465 23.5729L45.8942 32.3848C46.0777 32.6049 46.2083 32.8642 46.2758 33.1425C46.3435 33.421 46.3461 33.7112 46.284 33.9909L43.3866 47.0221C43.3175 47.3327 43.1705 47.6208 42.9594 47.859C42.748 48.097 42.4796 48.2776 42.1791 48.3832C41.8789 48.4891 41.5566 48.5165 41.2426 48.4633C40.9285 48.4101 40.6334 48.2778 40.3847 48.0789L33.3589 42.4615C37.4921 35.3057 38.8097 28.9874 38.5442 23.5806Z" fill="white"/>
<path d="M29.75 48.2523H22.25C21.7527 48.2523 21.2758 48.4497 20.9242 48.8011C20.5726 49.1524 20.375 49.6291 20.375 50.1261C20.375 50.6232 20.5726 51.0998 20.9242 51.4512C21.2758 51.8025 21.7527 52 22.25 52H29.75C30.2473 52 30.7243 51.8025 31.0759 51.4512C31.4274 51.0998 31.625 50.6232 31.625 50.1261C31.625 49.6291 31.4274 49.1524 31.0759 48.8011C30.7243 48.4497 30.2473 48.2523 29.75 48.2523Z" fill="white"/>
<path d="M26 22.9549C27.5532 22.9549 28.8125 21.6965 28.8125 20.1441C28.8125 18.5918 27.5532 17.3333 26 17.3333C24.4467 17.3333 23.1875 18.5918 23.1875 20.1441C23.1875 21.6965 24.4467 22.9549 26 22.9549Z" fill="#F7D664"/>
<path d="M47.4756 31.3544L40.3888 22.8554C40.1621 20.0559 39.5324 17.3039 38.5184 14.6844C35.7957 7.60771 30.9819 2.97291 28.3548 0.839975C27.6887 0.304061 26.8598 0.0105634 26.0046 0.00771141C25.1495 0.00485938 24.3187 0.292822 23.649 0.824281C20.9874 2.95511 16.112 7.58663 13.3616 14.6642C12.3138 17.3429 11.6741 20.1636 11.4638 23.032L4.52446 31.3544C4.15891 31.7954 3.89868 32.314 3.76353 32.8706C3.62839 33.4271 3.62186 34.0071 3.74446 34.5667L6.64204 47.5978C6.77933 48.2197 7.07303 48.7962 7.49537 49.2731C7.91772 49.7497 8.45476 50.1109 9.05572 50.3227C9.65671 50.5342 10.3017 50.589 10.9298 50.4822C11.5579 50.3751 12.1484 50.1097 12.6453 49.7113L19.1577 44.5045H32.8424L39.3545 49.7113C40.0163 50.2437 40.8404 50.5344 41.69 50.5351C42.117 50.5346 42.5408 50.4618 42.9432 50.3196C43.5449 50.11 44.0827 49.7497 44.5056 49.2733C44.9284 48.7969 45.2218 48.2199 45.358 47.5978L48.2556 34.5669C48.3781 34.0073 48.3716 33.4273 48.2366 32.8706C48.1013 32.314 47.8412 31.7954 47.4756 31.3544ZM25.9923 3.7501C42.4658 17.1284 35.7111 34.4348 32.3867 40.7565H19.5966C8.34454 20.209 21.5999 7.26736 25.9923 3.7501ZM10.3027 46.7848L7.40516 33.7536L11.6068 28.7146C12.1395 33.0926 13.6348 37.5731 16.0927 42.1556L10.3027 46.7848ZM41.6973 46.7848L35.8965 42.1469C38.323 37.5323 39.7874 33.0132 40.2894 28.5902L44.5949 33.7536L41.6973 46.7848Z" fill="#F7D664"/>
</g>
<defs>
<clipPath id="clip0_337_18341">
<rect width="52" height="52" fill="white"/>
</clipPath>
</defs>
</svg>
