<svg width="24" height="25" viewBox="0 0 24 25" fill="none" xmlns="http://www.w3.org/2000/svg">
<path d="M12 23C6.20101 23 1.5 18.299 1.5 12.5C1.5 6.70101 6.20101 2 12 2C17.799 2 22.5 6.70101 22.5 12.5C22.5 18.299 17.799 23 12 23ZM12 24.5C18.6274 24.5 24 19.1274 24 12.5C24 5.87258 18.6274 0.5 12 0.5C5.37258 0.5 0 5.87258 0 12.5C0 19.1274 5.37258 24.5 12 24.5Z" fill="#DF2B2B"/>
<path d="M6.96967 7.46967C7.26256 7.17678 7.73744 7.17678 8.03033 7.46967L12 11.4393L15.9697 7.46967C16.2626 7.17678 16.7374 7.17678 17.0303 7.46967C17.3232 7.76256 17.3232 8.23744 17.0303 8.53033L13.0607 12.5L17.0303 16.4697C17.3232 16.7626 17.3232 17.2374 17.0303 17.5303C16.7374 17.8232 16.2626 17.8232 15.9697 17.5303L12 13.5607L8.03033 17.5303C7.73744 17.8232 7.26256 17.8232 6.96967 17.5303C6.67678 17.2374 6.67678 16.7626 6.96967 16.4697L10.9393 12.5L6.96967 8.53033C6.67678 8.23744 6.67678 7.76256 6.96967 7.46967Z" fill="#DF2B2B"/>
</svg>
